<svg width="22" height="20" viewBox="0 0 22 20" fill="none" xmlns="http://www.w3.org/2000/svg">
<path d="M6.73345 18.1661C7.91949 18.1661 8.88096 17.2046 8.88096 16.0186C8.88096 14.8326 7.91949 13.8711 6.73345 13.8711C5.54741 13.8711 4.58594 14.8326 4.58594 16.0186C4.58594 17.2046 5.54741 18.1661 6.73345 18.1661Z" stroke="#9F9F99" stroke-width="1.5" stroke-miterlimit="10"/>
<path d="M8.89453 16.0703H20.999V18.1651" stroke="#9F9F99" stroke-width="1.5" stroke-miterlimit="10"/>
<path d="M4.33736 16.0253H2.8227C2.33929 16.0253 1.87568 15.8162 1.53386 15.444C1.19203 15.0718 1 14.567 1 14.0407V4.16821C1 3.64186 1.19203 3.13706 1.53386 2.76487C1.87568 2.39269 2.33929 2.18359 2.8227 2.18359H15.1368C15.5288 2.18359 15.9103 2.32119 16.2248 2.57597C16.5393 2.83074 16.77 3.18912 16.8826 3.59793L18.9626 11.1471C19.0446 11.4447 19.0613 11.759 19.0113 12.0649C18.9613 12.3708 18.8461 12.6596 18.6749 12.9081L16.4929 16.0759" stroke="#9F9F99" stroke-width="1.5" stroke-miterlimit="10"/>
<path d="M14.3647 16.0703V8.97613C14.3647 8.43856 14.1636 7.92301 13.8056 7.54289C13.4476 7.16277 12.962 6.94922 12.4558 6.94922C11.9495 6.94922 11.464 7.16277 11.106 7.54289C10.748 7.92301 10.5469 8.43856 10.5469 8.97613V16.0703" stroke="#9F9F99" stroke-width="1.5" stroke-miterlimit="10"/>
<path d="M4.58594 6.94922H7.44929" stroke="#9F9F99" stroke-width="1.5" stroke-miterlimit="10"/>
</svg>
