<svg width="22" height="22" viewBox="0 0 22 22" fill="none" xmlns="http://www.w3.org/2000/svg">
<path d="M2.49123 16.4122C1.24833 14.5125 0.688829 12.2464 0.904702 9.98649C1.12058 7.7266 2.09898 5.60742 3.67905 3.97736C5.25912 2.3473 7.34681 1.30339 9.59888 1.01726C11.851 0.731132 14.1334 1.21981 16.0709 2.40295C18.0084 3.58609 19.4856 5.39328 20.2598 7.52738C21.0339 9.66149 21.0588 11.9955 20.3305 14.1457C19.6022 16.2958 18.1639 18.1342 16.2521 19.3585C14.3403 20.5828 12.0689 21.1201 9.81123 20.8822C8.89377 20.8132 7.99451 20.5901 7.15123 20.2222C7.12715 20.214 7.10374 20.204 7.08123 20.1922C4.86123 19.2122 4.63123 17.1522 5.85123 15.9322L7.83123 13.9122" stroke="#9F9F99" stroke-width="1.5" stroke-miterlimit="10"/>
<path d="M10.1138 8.64851L12.8444 5.91797M13.1314 11.6661L15.8619 8.93555M6.34329 9.41018L8.60497 7.14851L14.6361 13.1796L12.3744 15.4413C11.9745 15.8412 11.4322 16.0659 10.8666 16.0659C10.3011 16.0659 9.75875 15.8412 9.35886 15.4413L6.34329 12.4258C5.94341 12.0259 5.71875 11.4835 5.71875 10.918C5.71875 10.3524 5.94341 9.81007 6.34329 9.41018Z" stroke="#9F9F99" stroke-width="1.5" stroke-miterlimit="10"/>
</svg>
