<svg width="18" height="18" viewBox="0 0 18 18" fill="none" xmlns="http://www.w3.org/2000/svg">
<path d="M2.77778 1H15.2222C15.6937 1 16.1459 1.17744 16.4793 1.49329C16.8127 1.80914 17 2.23753 17 2.68421V17H1V2.68421C1 2.23753 1.1873 1.80914 1.5207 1.49329C1.8541 1.17744 2.30628 1 2.77778 1V1Z" stroke="#9F9F99" stroke-width="1.5" stroke-miterlimit="10"/>
<path d="M14.0521 4.3678C14.5171 4.3678 14.8942 3.99078 14.8942 3.5257C14.8942 3.06062 14.5171 2.68359 14.0521 2.68359C13.587 2.68359 13.21 3.06062 13.21 3.5257C13.21 3.99078 13.587 4.3678 14.0521 4.3678Z" fill="#9F9F99"/>
<path d="M10.684 4.36801C11.1491 4.36801 11.5261 3.99099 11.5261 3.52591C11.5261 3.06082 11.1491 2.6838 10.684 2.6838C10.2189 2.6838 9.8419 3.06082 9.8419 3.52591C9.8419 3.99099 10.2189 4.36801 10.684 4.36801Z" fill="#9F9F99"/>
<path d="M3.9466 4.3678C4.41168 4.3678 4.7887 3.99078 4.7887 3.5257C4.7887 3.06062 4.41168 2.68359 3.9466 2.68359C3.48152 2.68359 3.10449 3.06062 3.10449 3.5257C3.10449 3.99078 3.48152 4.3678 3.9466 4.3678Z" fill="#9F9F99"/>
<path d="M7.31574 4.3678C7.78082 4.3678 8.15784 3.99078 8.15784 3.5257C8.15784 3.06062 7.78082 2.68359 7.31574 2.68359C6.85066 2.68359 6.47363 3.06062 6.47363 3.5257C6.47363 3.99078 6.85066 4.3678 7.31574 4.3678Z" fill="#9F9F99"/>
<rect x="3.85449" y="5.96094" width="10.2895" height="7.76316" stroke="#9F9F99" stroke-width="1.5"/>
<path d="M5.63184 11.1055H12.3687" stroke="#9F9F99" stroke-width="1.5" stroke-miterlimit="10"/>
</svg>
