<svg width="30" height="32" viewBox="0 0 30 32" fill="none" xmlns="http://www.w3.org/2000/svg">
<path d="M8.65225 11.1918V3.98344C8.65225 2.33573 9.98799 1 11.6357 1V1C13.2834 1 14.6191 2.33573 14.6191 3.98344V13.1173" stroke="white" stroke-width="1.5" stroke-miterlimit="10"/>
<path d="M3.44684 18.4428V22.8818C3.44684 27.2553 7.17364 30.701 11.5337 30.3588L19.6445 29.7222C23.547 29.4159 26.5576 26.1598 26.5576 22.2452V14.5938" stroke="white" stroke-width="1.5" stroke-miterlimit="10"/>
<path d="M3.44679 18.4929C3.44679 12.5805 8.66003 11.1953 8.66003 11.1953L18.0238 16.1601C19.5307 17.0301 20.047 18.9569 19.177 20.4637C18.307 21.9706 16.3802 22.4869 14.8734 21.6169L11.2205 19.4064V23.3879" stroke="white" stroke-width="1.5" stroke-miterlimit="10"/>
<path d="M14.6142 14.3666V12.2891C14.6142 10.6414 15.9499 9.30566 17.5976 9.30566V9.30566C19.2453 9.30566 20.5811 10.6414 20.5811 12.2891V14.3666" stroke="white" stroke-width="1.5" stroke-miterlimit="10"/>
<path d="M20.5907 14.3533V14.2227C20.5907 12.575 21.9265 11.2393 23.5742 11.2393V11.2393C25.2219 11.2393 26.5576 12.575 26.5576 14.2227V14.3533" stroke="white" stroke-width="1.5" stroke-miterlimit="10"/>
<path d="M20.5907 14.1205V15.9316C20.5907 17.5793 21.9265 18.915 23.5742 18.915V18.915C25.2219 18.915 26.5576 17.5793 26.5576 15.9316V14.1205" stroke="white" stroke-width="1.5" stroke-miterlimit="10"/>
</svg>
