<svg width="18" height="18" viewBox="0 0 18 18" fill="none" xmlns="http://www.w3.org/2000/svg">
<g clip-path="url(#clip0_1_2)">
<path d="M9.61719 16.3477H11.0779" stroke="#9F9F99" stroke-width="1.5" stroke-miterlimit="10"/>
<path d="M9.26398 5.44922C9.26398 6.43956 9.22071 7.51112 7.3535 8.51282C6.29144 9.08258 4.63538 9.80562 4.63538 9.80562C2.65718 9.86475 2.15299 6.83302 2.15299 6.83302C2.15299 6.83302 -0.816469 9.3843 2.77549 11.7828C1.804 14.5806 3.65171 17.076 6.32942 17.076H9.61606C9.61528 16.4981 9.38418 15.944 8.97344 15.5353C8.5627 15.1267 8.00584 14.8968 7.42497 14.896C7.83766 14.5489 8.13024 14.0814 8.2613 13.5598C8.39237 13.0382 8.3553 12.4888 8.15533 11.9893" stroke="#9F9F99" stroke-width="1.5" stroke-miterlimit="10"/>
<path d="M10.9763 3.34607L10.6885 4.42476C10.5668 4.78861 10.3094 5.0921 9.96933 5.27258C9.62928 5.45306 9.23257 5.49675 8.86108 5.39464C8.63665 5.33058 8.43008 5.21591 8.2574 5.05954C8.08473 4.90317 7.9506 4.70931 7.86543 4.49301C7.78026 4.27672 7.74634 4.0438 7.76631 3.81234C7.78627 3.58089 7.85958 3.35712 7.98055 3.15842C8.34678 2.48071 8.90375 1.92399 9.58321 1.55648C10.2627 1.18897 11.0351 1.02662 11.8059 1.08933C13.771 1.08933 14.4184 2.07805 14.6276 2.72467C14.6739 2.88004 14.7688 3.01665 14.8986 3.11462C15.0283 3.21259 15.1861 3.26679 15.349 3.26935H16.9185C16.9185 3.26935 17.6488 6.17604 14.7274 6.17604H13.9194C13.8099 6.17554 13.7017 6.19955 13.6029 6.2463C13.504 6.29305 13.417 6.36134 13.3483 6.4461C13.2796 6.53086 13.2309 6.62992 13.2059 6.73594C13.1809 6.84197 13.1802 6.95223 13.2038 7.05856C13.5518 8.51284 14.6089 9.22699 13.5514 13.042C12.6028 16.4639 15.2584 14.1151 15.2584 17.0761H12.4898C12.1024 17.0761 11.7308 16.923 11.4569 16.6505C11.183 16.3779 11.0291 16.0082 11.0291 15.6228V12.7161" stroke="#9F9F99" stroke-width="1.5" stroke-miterlimit="10"/>
<path d="M8.99707 6.98047C9.23912 7.30076 9.54225 7.57044 9.88912 7.77409C10.236 7.97774 10.6198 8.11136 11.0186 8.16732C11.4175 8.22328 11.8234 8.20048 12.2134 8.10022C12.6034 7.99996 12.9696 7.82421 13.2913 7.58301" stroke="#9F9F99" stroke-width="1.5" stroke-miterlimit="10"/>
</g>
<defs>
<clipPath id="clip0_1_2">
<rect width="18" height="18" fill="white"/>
</clipPath>
</defs>
</svg>
