<svg width="30" height="32" viewBox="0 0 30 32" fill="none" xmlns="http://www.w3.org/2000/svg">
<path d="M8.64859 11.1918V3.98344C8.64859 2.33573 9.98432 1 11.632 1V1C13.2797 1 14.6155 2.33574 14.6155 3.98345V11.1918" stroke="white" stroke-width="1.5" stroke-miterlimit="10"/>
<path d="M3.44318 18.4487V22.8878C3.44318 27.2612 7.16998 30.707 11.53 30.3648L19.6408 29.7282C23.5433 29.4219 26.554 26.1657 26.554 22.2512V14.0518" stroke="white" stroke-width="1.5" stroke-miterlimit="10"/>
<path d="M3.44313 18.4929C3.44313 12.5805 8.65636 11.1953 8.65636 11.1953L18.0202 16.1601C19.527 17.0301 20.0433 18.9569 19.1733 20.4637C18.3034 21.9706 16.3766 22.4869 14.8697 21.6169L11.2169 19.4064V23.3879" stroke="white" stroke-width="1.5" stroke-miterlimit="10"/>
<path d="M14.6105 14.3613V3.98344C14.6105 2.33573 15.9462 1 17.5939 1V1C19.2417 1 20.5774 2.33573 20.5774 3.98344V14.3613" stroke="white" stroke-width="1.5" stroke-miterlimit="10"/>
<path d="M20.5871 14.3658V7.38188C20.5871 5.73417 21.9228 4.39844 23.5705 4.39844V4.39844C25.2182 4.39844 26.554 5.73417 26.554 7.38188V14.3658" stroke="white" stroke-width="1.5" stroke-miterlimit="10"/>
</svg>
