<svg width="30" height="32" viewBox="0 0 30 32" fill="none" xmlns="http://www.w3.org/2000/svg">
<path d="M8.64859 11.1932V5.03813C8.64859 3.39042 9.98432 2.05469 11.632 2.05469V2.05469C13.2797 2.05469 14.6155 3.39042 14.6155 5.03813V11.1932" stroke="white" stroke-width="1.5" stroke-miterlimit="10"/>
<path d="M3.44318 18.4428V22.8818C3.44318 27.2553 7.16998 30.701 11.53 30.3588L19.6408 29.7222C23.5433 29.4159 26.554 26.1598 26.554 22.2452V14.5938" stroke="white" stroke-width="1.5" stroke-miterlimit="10"/>
<path d="M3.44313 18.4929C3.44313 12.5805 8.65636 11.1953 8.65636 11.1953L18.0202 16.1601C19.527 17.0301 20.0433 18.9569 19.1733 20.4637C18.3034 21.9706 16.3766 22.4869 14.8697 21.6169L11.2169 19.4064V23.3879" stroke="white" stroke-width="1.5" stroke-miterlimit="10"/>
<path d="M14.6105 14.3613V3.98344C14.6105 2.33573 15.9462 1 17.5939 1V1C19.2417 1 20.5774 2.33573 20.5774 3.98344V14.3613" stroke="white" stroke-width="1.5" stroke-miterlimit="10"/>
<path d="M20.5871 14.3673V14.1788C20.5871 12.531 21.9228 11.1953 23.5705 11.1953V11.1953C25.2182 11.1953 26.554 12.531 26.554 14.1788V14.3673" stroke="white" stroke-width="1.5" stroke-miterlimit="10"/>
<path d="M20.5871 14.1205V15.9316C20.5871 17.5793 21.9228 18.915 23.5705 18.915V18.915C25.2182 18.915 26.554 17.5793 26.554 15.9316V14.1205" stroke="white" stroke-width="1.5" stroke-miterlimit="10"/>
</svg>
