<svg width="22" height="20" viewBox="0 0 22 20" fill="none" xmlns="http://www.w3.org/2000/svg">
<path d="M1 15.6668H0.25V16.4168H1V15.6668ZM1 3.98135L0.25 3.97916V3.98135H1ZM2.79776 2.18359V1.43359L2.79556 1.4336L2.79776 2.18359ZM16.4338 2.18359L16.4345 1.43359H16.4338V2.18359ZM19.2383 3.34315L19.7686 2.81282L19.7674 2.81159L19.2383 3.34315ZM19.8765 3.98135H20.6265V3.67069L20.4068 3.45102L19.8765 3.98135ZM19.8765 6.67799V7.42799H20.6265V6.67799H19.8765ZM17.3866 6.67799V5.92799L17.3844 5.92799L17.3866 6.67799ZM15.5888 8.47575L14.8388 8.47355V8.47575H15.5888ZM15.5888 15.6668V16.4168H16.3388V15.6668H15.5888ZM20.7766 11.1743H21.5266V10.7108L21.112 10.5035L20.7766 11.1743ZM18.9788 10.2754L18.2379 10.392L18.2979 10.7735L18.6434 10.9462L18.9788 10.2754ZM8.86621 9.02752L8.11678 8.99826L8.11621 9.01288V9.02752H8.86621ZM10.4392 7.57549L10.4086 8.32486L10.4392 8.32611L10.4699 8.32486L10.4392 7.57549ZM12.0123 9.02752H12.7623V9.01288L12.7617 8.99826L12.0123 9.02752ZM3.69531 6.82422C3.2811 6.82422 2.94531 7.16 2.94531 7.57422C2.94531 7.98843 3.2811 8.32422 3.69531 8.32422V6.82422ZM6.39195 8.32422C6.80616 8.32422 7.14195 7.98843 7.14195 7.57422C7.14195 7.16 6.80616 6.82422 6.39195 6.82422V8.32422ZM3.47192 14.9168H1V16.4168H3.47192V14.9168ZM1.75 15.6668V3.98135H0.25V15.6668H1.75ZM1.75 3.98355C1.75081 3.70533 1.86169 3.43874 2.05842 3.24202L0.997762 2.18136C0.520804 2.65831 0.251978 3.30464 0.250003 3.97916L1.75 3.98355ZM2.05842 3.24202C2.25515 3.04529 2.52174 2.9344 2.79995 2.93359L2.79556 1.4336C2.12105 1.43557 1.47472 1.7044 0.997762 2.18136L2.05842 3.24202ZM2.79776 2.93359H16.4338V1.43359H2.79776V2.93359ZM16.433 2.93359C17.2862 2.93447 18.1044 3.27278 18.7092 3.8747L19.7674 2.81159C18.8819 1.93024 17.6838 1.43487 16.4345 1.43359L16.433 2.93359ZM18.7079 3.87348L19.3461 4.51168L20.4068 3.45102L19.7686 2.81282L18.7079 3.87348ZM19.1265 3.98135V6.67799H20.6265V3.98135H19.1265ZM19.8765 5.92799H17.3866V7.42799H19.8765V5.92799ZM17.3844 5.92799C16.7099 5.92997 16.0635 6.19879 15.5866 6.67575L16.6472 7.73641C16.844 7.53968 17.1105 7.4288 17.3888 7.42799L17.3844 5.92799ZM15.5866 6.67575C15.1096 7.15271 14.8408 7.79904 14.8388 8.47355L16.3388 8.47794C16.3396 8.19973 16.4505 7.93314 16.6472 7.73641L15.5866 6.67575ZM14.8388 8.47575V15.6668H16.3388V8.47575H14.8388ZM15.5888 14.9168H7.51687V16.4168H15.5888V14.9168ZM6.76566 15.6709C6.76566 16.3737 6.19595 16.9434 5.49318 16.9434V18.4434C7.02438 18.4434 8.26566 17.2021 8.26566 15.6709H6.76566ZM5.49318 16.9434C4.79041 16.9434 4.2207 16.3737 4.2207 15.6709H2.7207C2.7207 17.2021 3.96198 18.4434 5.49318 18.4434V16.9434ZM4.2207 15.6709C4.2207 14.9681 4.79041 14.3984 5.49318 14.3984V12.8984C3.96198 12.8984 2.7207 14.1397 2.7207 15.6709H4.2207ZM5.49318 14.3984C6.19595 14.3984 6.76566 14.9681 6.76566 15.6709H8.26566C8.26566 14.1397 7.02438 12.8984 5.49318 12.8984V14.3984ZM20.252 15.6709C20.252 16.3737 19.6823 16.9434 18.9795 16.9434V18.4434C20.5107 18.4434 21.752 17.2021 21.752 15.6709H20.252ZM18.9795 16.9434C18.2767 16.9434 17.707 16.3737 17.707 15.6709H16.207C16.207 17.2021 17.4483 18.4434 18.9795 18.4434V16.9434ZM17.707 15.6709C17.707 14.9681 18.2767 14.3984 18.9795 14.3984V12.8984C17.4483 12.8984 16.207 14.1397 16.207 15.6709H17.707ZM18.9795 14.3984C19.6823 14.3984 20.252 14.9681 20.252 15.6709H21.752C21.752 14.1397 20.5107 12.8984 18.9795 12.8984V14.3984ZM13.583 16.4199H17.1785V14.9199H13.583V16.4199ZM21.5266 14.7698V11.1743H20.0266V14.7698H21.5266ZM21.112 10.5035L19.3142 9.60461L18.6434 10.9462L20.4411 11.8451L21.112 10.5035ZM19.7197 10.1588L19.1579 6.5885L17.6761 6.82166L18.2379 10.392L19.7197 10.1588ZM9.61621 15.6654V9.02752H8.11621V15.6654H9.61621ZM9.61564 9.05677C9.61955 8.95662 9.64317 8.85822 9.68515 8.76721L8.32308 8.13891C8.19849 8.40901 8.12839 8.70103 8.11678 8.99826L9.61564 9.05677ZM9.68515 8.76721C9.72714 8.6762 9.78666 8.59436 9.8603 8.52637L8.84289 7.42417C8.62432 7.62593 8.44768 7.8688 8.32308 8.13891L9.68515 8.76721ZM9.8603 8.52637C9.93395 8.45839 10.0203 8.4056 10.1144 8.37102L9.59686 6.96312C9.31767 7.06574 9.06146 7.22241 8.84289 7.42417L9.8603 8.52637ZM10.1144 8.37102C10.2084 8.33644 10.3084 8.32075 10.4086 8.32486L10.4699 6.82611C10.1727 6.81394 9.87605 6.86049 9.59686 6.96312L10.1144 8.37102ZM10.4699 8.32486C10.5701 8.32075 10.6701 8.33644 10.7641 8.37102L11.2816 6.96312C11.0024 6.86049 10.7058 6.81394 10.4086 6.82611L10.4699 8.32486ZM10.7641 8.37102C10.8582 8.4056 10.9445 8.45839 11.0182 8.52637L12.0356 7.42417C11.817 7.22241 11.5608 7.06574 11.2816 6.96312L10.7641 8.37102ZM11.0182 8.52637C11.0918 8.59436 11.1514 8.6762 11.1933 8.76721L12.5554 8.13891C12.4308 7.8688 12.2542 7.62593 12.0356 7.42417L11.0182 8.52637ZM11.1933 8.76721C11.2353 8.85822 11.2589 8.95662 11.2629 9.05677L12.7617 8.99826C12.7501 8.70103 12.68 8.40901 12.5554 8.13891L11.1933 8.76721ZM11.2623 9.02752V15.6654H12.7623V9.02752H11.2623ZM3.69531 8.32422H6.39195V6.82422H3.69531V8.32422Z" fill="#9F9F99"/>
</svg>
