<svg width="16" height="18" viewBox="0 0 16 18" fill="none" xmlns="http://www.w3.org/2000/svg">
<path d="M10.0165 4.06609C10.0165 4.30904 9.96865 4.54961 9.87568 4.77407C9.7827 4.99853 9.64643 5.20248 9.47464 5.37427C9.30284 5.54606 9.0989 5.68234 8.87444 5.77531C8.64998 5.86828 8.40941 5.91614 8.16645 5.91614C7.9235 5.91614 7.68293 5.86828 7.45847 5.77531C7.23401 5.68234 7.03007 5.54606 6.85827 5.37427C6.68648 5.20248 6.55021 4.99853 6.45723 4.77407C6.36426 4.54961 6.31641 4.30904 6.31641 4.06609C6.31641 3.04434 8.16645 1.29102 8.16645 1.29102C8.16645 1.29102 10.0165 3.04434 10.0165 4.06609Z" stroke="#9F9F99" stroke-width="1.5" stroke-miterlimit="10"/>
<path d="M4.31256 5.14453H2L3.36332 15.3694C3.41269 15.7397 3.59485 16.0795 3.87593 16.3256C4.15701 16.5717 4.51788 16.7073 4.89147 16.7073H11.4422C11.8158 16.7073 12.1767 16.5717 12.4577 16.3256C12.7388 16.0795 12.921 15.7397 12.9704 15.3694L14.3337 5.14453H12.0211" stroke="#9F9F99" stroke-width="1.5" stroke-miterlimit="10"/>
<path d="M13.8591 9.33394C9.15006 11.3723 6.49649 6.23911 2.507 9.68313" stroke="#9F9F99" stroke-width="1.5" stroke-miterlimit="10"/>
</svg>
