<svg width="18" height="16" viewBox="0 0 18 16" fill="none" xmlns="http://www.w3.org/2000/svg">
<path d="M0.855469 5.70333C1.86988 4.54034 3.1216 3.60809 4.52642 2.9693C5.93124 2.33051 7.45658 2 8.99981 2C10.543 2 12.0684 2.33051 13.4732 2.9693C14.878 3.60809 16.1297 4.54034 17.1441 5.70333" stroke="#9F9F99" stroke-width="1.5" stroke-miterlimit="10"/>
<path d="M4.1865 9.03321C4.75927 8.30415 5.49017 7.71472 6.32404 7.3094C7.1579 6.90409 8.07293 6.69349 9.00008 6.69349C9.92723 6.69349 10.8423 6.90409 11.6761 7.3094C12.51 7.71472 13.2409 8.30415 13.8137 9.03321" stroke="#9F9F99" stroke-width="1.5" stroke-miterlimit="10"/>
<path d="M8.99969 14.6673C10.0285 14.6673 10.8625 13.8333 10.8625 12.8045C10.8625 11.7757 10.0285 10.9416 8.99969 10.9416C7.97087 10.9416 7.13685 11.7757 7.13685 12.8045C7.13685 13.8333 7.97087 14.6673 8.99969 14.6673Z" stroke="#9F9F99" stroke-width="1.5" stroke-miterlimit="10"/>
</svg>
